<?xml version="1.0" standalone="no"?><!DOCTYPE svg PUBLIC "-//W3C//DTD SVG 1.1//EN" "http://www.w3.org/Graphics/SVG/1.1/DTD/svg11.dtd"><svg class="icon" width="200px" height="200.00px" viewBox="0 0 1024 1024" version="1.1" xmlns="http://www.w3.org/2000/svg"><path d="M354.40128 0c-87.04 0-157.44 70.55872-157.44 157.59872v275.68128H78.72c-21.6576 0-39.36256 17.69984-39.36256 39.36256v236.31872c0 21.6576 17.69984 39.35744 39.36256 39.35744h118.24128v118.08256c0 87.04 70.4 157.59872 157.44 157.59872h472.63744c87.04 0 157.59872-70.55872 157.59872-157.59872V315.0336c0-41.74848-38.9888-81.93024-107.52-149.27872l-29.11744-29.12256L818.87744 107.52C751.5392 38.9888 711.39328 0 669.59872 0H354.4064z m0 78.72h287.20128c28.35456 7.0912 27.99616 42.1376 27.99616 76.8v120.16128c0 21.6576 17.69984 39.35744 39.36256 39.35744h118.07744c39.38816 0 78.87872-0.0256 78.87872 39.36256v512c0 43.32032-35.55328 78.87872-78.87872 78.87872H354.4064c-43.32544 0-78.72-35.5584-78.72-78.87872v-118.08256h393.91744c21.66272 0 39.36256-17.69472 39.36256-39.35744V472.64256c0-21.66272-17.69984-39.36256-39.36256-39.36256H275.68128V157.59872c0-43.32032 35.39456-78.87872 78.72-78.87872zM308.6336 498.07872c23.04 0 41.28256 8.00256 54.72256 24.00256 14.08 15.36 21.12 37.43744 21.12 66.23744 0 29.44-7.04 51.84-21.12 67.2-13.44 15.36-31.68256 23.04-54.72256 23.04-23.68 0-42.24-7.35744-55.68-22.07744-13.44-15.36-20.15744-38.08256-20.15744-68.16256 0-29.44 6.71744-51.84 20.15744-67.2s32-23.04 55.68-23.04z m186.24 0.96256c17.92 0 33.28 3.2 46.08 9.6l-9.6 19.2c-12.16-6.4-24.32-9.6-36.48-9.6-16.64 0-30.39744 6.4-41.27744 19.2-10.24 12.16-15.36 29.44-15.36 51.84 0 23.04 4.79744 40.63744 14.39744 52.79744 9.6 11.52 23.68 17.28 42.24 17.28 10.24 0 23.36256-2.23744 39.36256-6.71744v19.2c-11.52 4.48-25.92256 6.71744-43.20256 6.71744-23.68 0-42.24-7.35744-55.68-22.07744-13.44-15.36-20.15744-38.08256-20.15744-68.16256 0-28.16 7.04-49.92 21.12-65.28 14.72-16 34.23744-23.99744 58.55744-23.99744z m-421.43744 1.92h48.95744c24.96 0 44.48256 7.68 58.56256 23.04 14.72 14.72 22.07744 35.84 22.07744 63.36 0 28.8-7.68 50.87744-23.04 66.23744-14.72 15.36-35.51744 23.04-62.39744 23.04h-44.16V500.96128z m478.08 0h23.99744l39.36256 67.2 40.32-67.2h23.04l-50.88256 83.51744 54.72256 92.16h-24.96l-43.20256-75.83744-43.19744 75.83744h-23.04l54.71744-92.16-50.87744-83.51744z m-242.88256 17.28c-17.28 0-30.39744 6.07744-39.35744 18.23744-8.96 11.52-13.44 28.8-13.44 51.84 0 23.68 4.48 41.6 13.44 53.76 8.96 11.52 22.07744 17.28 39.35744 17.28s30.40256-5.76 39.36256-17.28c8.96-12.16 13.44-30.08 13.44-53.76 0-23.04-4.48-40.32-13.44-51.84-8.96-12.16-22.08256-18.23744-39.36256-18.23744z m-213.12 1.92v137.27744h19.2c21.76 0 37.76-5.76 48-17.28 10.88-11.52 16.32256-28.8 16.32256-51.84s-5.12-39.99744-15.36-50.87744c-9.6-11.52-24.32-17.28-44.16-17.28h-24.00256z" /></svg>