<?xml version="1.0" standalone="no"?><!DOCTYPE svg PUBLIC "-//W3C//DTD SVG 1.1//EN" "http://www.w3.org/Graphics/SVG/1.1/DTD/svg11.dtd"><svg class="icon" width="200px" height="200.00px" viewBox="0 0 1024 1024" version="1.1" xmlns="http://www.w3.org/2000/svg"><path d="M743.424 0H213.504C166.4 0 128 38.4 128 85.504V384H42.496A42.410667 42.410667 0 0 0 0 426.496v362.496c0 23.552 18.944 42.496 42.496 42.496H128v106.496c0 47.104 38.4 85.504 85.504 85.504h725.504c47.104 0 85.504-38.4 85.504-85.504V282.624L743.424 0zM960 938.496a21.632 21.632 0 0 1-21.504 21.504H213.504a21.632 21.632 0 0 1-21.504-21.504V832h640a42.410667 42.410667 0 0 0 42.496-42.496V426.496A42.410667 42.410667 0 0 0 832 384h-640V85.504c0-11.776 9.728-21.504 21.504-21.504H716.8l8.704 8.704v128a97.877333 97.877333 0 0 0 98.304 97.792h126.464l10.24 10.24v629.76H960z" fill="#657085" /><path d="M260.778667 469.333333c-41.386667 0-74.24 13.525333-98.432 41.344-23.04 25.898667-34.346667 58.965333-34.346667 99.157334 0 39.808 11.306667 72.533333 34.346667 97.706666 24.618667 27.008 58.965333 40.533333 103.509333 40.533334 24.96 0 47.232-2.986667 67.541333-9.002667 19.114667-5.973333 35.925333-14.293333 50.773334-25.557333v-113.450667h-119.466667v37.546667h73.770667v55.253333c-9.386667 5.248-19.114667 9.386667-30.08 12.373333-11.690667 3.029333-24.192 4.522667-37.461334 4.522667-34.005333 0-58.965333-9.002667-75.008-27.050667-14.805333-16.896-22.229333-41.301333-22.229333-72.874666 0-33.066667 8.192-58.24 25.002667-76.245334 15.189333-17.28 35.925333-25.6 62.08-25.6 21.077333 0 38.272 4.181333 51.157333 12.8 12.501333 8.661333 21.077333 21.418667 24.96 38.698667h46.08c-5.077333-30.037333-17.536-52.224-37.461333-67.242667-20.693333-15.36-48.810667-22.912-84.736-22.912zM434.858667 474.581333v268.245334h45.696v-268.245334h-45.653334zM535.168 474.581333v268.245334h45.653333v-118.698667h136.32v-37.546667h-136.277333v-74.410666H725.333333v-37.546667h-190.165333z" fill="#FFFFFF" /></svg>