<?xml version="1.0" standalone="no"?><!DOCTYPE svg PUBLIC "-//W3C//DTD SVG 1.1//EN" "http://www.w3.org/Graphics/SVG/1.1/DTD/svg11.dtd"><svg class="icon" width="200px" height="200.00px" viewBox="0 0 1024 1024" version="1.1" xmlns="http://www.w3.org/2000/svg"><path d="M341.275836 0c-86.989381 0-157.480776 70.491395-157.480777 157.605761V433.197119h-118.235567c-21.622361 0-39.370194 17.747834-39.370194 39.370195v236.346149c0 21.622361 17.747834 39.370194 39.370194 39.370194H183.920044v118.110582c0 86.989381 70.36641 157.605761 157.480776 157.605761h472.442329c86.989381 0 157.605761-70.491395 157.605761-157.605761V314.961553c0-41.744904-38.99524-81.865007-107.486879-149.231784l-29.121445-29.121445-29.121445-29.121445c-67.366777-68.491639-107.486879-107.486879-149.231783-107.486879H341.275836z m0 78.740388h287.214939c28.371537 7.12413 27.996582 42.119858 27.996583 76.740632v120.110338c0 21.622361 17.747834 39.370194 39.370194 39.370195H813.843149c39.370194 0 78.865373 0 78.865373 39.370194v511.937507c0 43.369706-35.495667 78.865373-78.865373 78.865373H341.275836c-43.369706 0-78.740388-35.495667-78.740389-78.865373V748.158672H656.362373c21.622361 0 39.370194-17.747834 39.370194-39.370194v-236.221164c0-21.622361-17.747834-39.370194-39.370194-39.370195H262.535447V157.605761c0-43.369706 35.495667-78.865373 78.740389-78.865373z"  /><path d="M148.049423 511.937508h134.483583v8.248993h-62.492371v155.980959h-8.998902V520.186501H148.049423V511.937508zM293.406679 511.937508h11.248627l51.743684 71.241303 51.493714-71.241303h11.498596l-57.492982 78.615403 62.742341 85.489564h-11.498596L356.39899 597.427072l-56.743074 78.615403h-11.498596l62.742341-85.489564-57.492982-78.615403zM430.264973 511.937508h134.483583v8.248993h-62.492371v155.980959h-8.998902V520.186501h-62.99231V511.937508z" fill="#FDFDFE" /></svg>